<?xml version="1.0" encoding="utf-8"?>
<!-- Generator: Adobe Illustrator 23.0.3, SVG Export Plug-In . SVG Version: 6.00 Build 0)  -->
<svg version="1.1" id="Layer_1" xmlns="http://www.w3.org/2000/svg" xmlns:xlink="http://www.w3.org/1999/xlink" x="0px" y="0px"
	 viewBox="0 0 157 33" style="enable-background:new 0 0 157 33;" xml:space="preserve">
<style type="text/css">
	.st0{fill-rule:evenodd;clip-rule:evenodd;fill:#0098FF;}
	.st1{filter:url(#Adobe_OpacityMaskFilter);}
	.st2{fill-rule:evenodd;clip-rule:evenodd;fill:#FFFFFF;}
	.st3{mask:url(#mask-2_1_);fill-rule:evenodd;clip-rule:evenodd;fill:#001C2C;}
</style>
<title>jsHeroes_logo</title>
<desc>Created with Sketch.</desc>
<g id="Exports">
	<g id="Homepage-New" transform="translate(-529.000000, -4468.000000)">
		<g id="Group-6" transform="translate(561.000000, 4558.000000)">
			<path id="Fill-1" class="st0" d="M1.6-69c0-0.9-0.3-1.6-1-2.1c-0.6-0.5-1.8-1-3.4-1.6c-1.6-0.5-2.9-1.1-3.9-1.6
				c-3.3-1.6-5-3.9-5-6.7c0-1.4,0.4-2.7,1.2-3.8c0.8-1.1,2-1.9,3.5-2.5c1.5-0.6,3.2-0.9,5.1-0.9c1.8,0,3.5,0.3,5,1
				c1.5,0.7,2.6,1.6,3.4,2.8c0.8,1.2,1.2,2.6,1.2,4.2H1.6c0-1-0.3-1.9-1-2.4c-0.6-0.6-1.5-0.9-2.6-0.9s-2,0.2-2.6,0.7
				c-0.6,0.5-1,1.1-1,1.9c0,0.7,0.4,1.3,1.1,1.8c0.7,0.5,1.9,1.1,3.7,1.7s3.2,1.2,4.4,1.8C6.4-74,7.8-71.8,7.8-69
				c0,2.2-0.8,4-2.5,5.3c-1.7,1.3-4,1.9-7,1.9c-2.1,0-4-0.4-5.6-1.1s-3-1.8-3.8-3.1c-0.9-1.3-1.3-2.8-1.3-4.5h6.2
				c0,1.4,0.4,2.4,1.1,3s1.9,1,3.5,1c1,0,1.8-0.2,2.4-0.7C1.3-67.6,1.6-68.2,1.6-69L1.6-69z M-19.5-87.8h6.2v17.6
				c0,1.6-0.4,3.1-1.1,4.4s-1.8,2.3-3.2,3c-1.4,0.7-2.9,1.1-4.5,1.1c-2.8,0-5-0.7-6.5-2.1c-1.5-1.4-2.3-3.4-2.3-6h6.2
				c0,1.2,0.2,2,0.6,2.6c0.4,0.5,1.1,0.8,2,0.8c0.9,0,1.5-0.3,2-1c0.5-0.6,0.7-1.5,0.7-2.7L-19.5-87.8L-19.5-87.8z"/>
			<g id="Group-5" transform="translate(40.675547, 0.356803)">
				<g id="Clip-4">
				</g>
				<defs>
					<filter id="Adobe_OpacityMaskFilter" filterUnits="userSpaceOnUse" x="-30.9" y="-88.2" width="109.2" height="26">
						<feColorMatrix  type="matrix" values="1 0 0 0 0  0 1 0 0 0  0 0 1 0 0  0 0 0 1 0"/>
					</filter>
				</defs>
				<mask maskUnits="userSpaceOnUse" x="-30.9" y="-88.2" width="109.2" height="26" id="mask-2_1_">
					<g class="st1">
						<polygon id="path-1_1_" class="st2" points="-30.9,-88.2 78.3,-88.2 78.3,-62.2 -30.9,-62.2 						"/>
					</g>
				</mask>
				<path id="Fill-3" class="st3" d="M72.5-67.9c0-0.5-0.3-0.9-0.8-1.2c-0.5-0.3-1.5-0.6-3-1c-1.5-0.3-2.7-0.8-3.7-1.3
					c-1-0.5-1.7-1.2-2.2-1.9c-0.5-0.8-0.8-1.6-0.8-2.6c0-1.7,0.7-3.2,2.2-4.3c1.4-1.1,3.3-1.7,5.7-1.7c2.5,0,4.5,0.6,6.1,1.7
					c1.5,1.1,2.3,2.6,2.3,4.5h-6c0-1.5-0.8-2.3-2.4-2.3c-0.6,0-1.1,0.2-1.6,0.5s-0.6,0.8-0.6,1.3s0.3,1,0.8,1.3
					c0.5,0.3,1.3,0.6,2.5,0.8c1.1,0.2,2.1,0.5,3,0.8c2.9,1,4.3,2.8,4.3,5.3c0,1.7-0.8,3.2-2.3,4.2c-1.5,1.1-3.5,1.6-6,1.6
					c-1.6,0-3.1-0.3-4.4-0.9s-2.3-1.4-3-2.4c-0.7-1-1.1-2.1-1.1-3.2h5.5c0,0.9,0.3,1.5,0.9,1.9c0.6,0.4,1.3,0.6,2.2,0.6
					c0.8,0,1.4-0.2,1.8-0.5C72.3-66.9,72.5-67.4,72.5-67.9L72.5-67.9z M52.2-77.4c-1.7,0-2.8,1.2-3.1,3.5h6v-0.5
					c0-1-0.2-1.7-0.7-2.2C53.9-77.1,53.2-77.4,52.2-77.4L52.2-77.4z M52.9-62.2c-2.9,0-5.3-0.9-7.1-2.6c-1.8-1.7-2.7-4-2.7-6.8v-0.5
					c0-1.9,0.4-3.7,1.1-5.2c0.7-1.5,1.8-2.6,3.2-3.5c1.4-0.8,3-1.2,4.9-1.2c2.7,0,4.8,0.8,6.3,2.5c1.6,1.7,2.3,4,2.3,6.9v2.3H49.1
					c0.2,1.1,0.7,1.9,1.4,2.5c0.7,0.6,1.6,0.9,2.8,0.9c1.9,0,3.3-0.7,4.4-2l2.7,3.2c-0.7,1-1.8,1.8-3.1,2.4
					C55.9-62.5,54.4-62.2,52.9-62.2L52.9-62.2z M29.3-71.9c0,1.8,0.3,3.1,0.8,3.9c0.6,0.8,1.4,1.2,2.4,1.2c2.1,0,3.2-1.6,3.2-4.9
					v-0.6c0-3.4-1.1-5.1-3.3-5.1c-2,0-3.1,1.5-3.2,4.4L29.3-71.9z M23.4-72.2c0-1.9,0.4-3.6,1.1-5.1s1.8-2.6,3.2-3.4s3-1.2,4.9-1.2
					c2.9,0,5.1,0.9,6.7,2.7c1.6,1.8,2.5,4.2,2.5,7.2v0.2c0,3-0.8,5.3-2.5,7.1c-1.6,1.7-3.9,2.6-6.7,2.6c-2.7,0-4.9-0.8-6.5-2.4
					c-1.6-1.6-2.5-3.8-2.7-6.6L23.4-72.2z M23.1-76.2l-2-0.1c-1.9,0-3.1,0.6-3.6,1.8v12.1h-5.9v-19h5.6l0.2,2.4
					c1-1.9,2.4-2.8,4.2-2.8c0.6,0,1.2,0.1,1.7,0.2L23.1-76.2z M1.2-77.4c-1.7,0-2.8,1.2-3.1,3.5h6v-0.5c0-1-0.2-1.7-0.7-2.2
					C2.9-77.1,2.2-77.4,1.2-77.4L1.2-77.4z M1.9-62.2c-2.9,0-5.3-0.9-7.1-2.6c-1.8-1.7-2.7-4-2.7-6.8v-0.5c0-1.9,0.4-3.7,1.1-5.2
					c0.7-1.5,1.8-2.6,3.2-3.5c1.4-0.8,3-1.2,4.9-1.2c2.7,0,4.8,0.8,6.3,2.5c1.6,1.7,2.3,4,2.3,6.9v2.3H-1.9c0.2,1.1,0.7,1.9,1.4,2.5
					c0.7,0.6,1.6,0.9,2.8,0.9c1.9,0,3.3-0.7,4.4-2l2.7,3.2c-0.7,1-1.8,1.8-3.1,2.4C4.9-62.5,3.5-62.2,1.9-62.2L1.9-62.2z M-9.5-62.5
					h-6.1v-10.7h-9.1v10.7h-6.2v-25.6h6.2V-78h9.1v-10.2h6.1V-62.5z"/>
			</g>
		</g>
	</g>
</g>
</svg>
